<svg version="1.1" id="Calque_1" xmlns="http://www.w3.org/2000/svg" xmlns:xlink="http://www.w3.org/1999/xlink" x="0px" y="0px"
     viewBox="0 0 223.7 115" style="enable-background:new 0 0 223.7 115;" xml:space="preserve">
<style type="text/css">
    g{fill:#fff;}
</style>

<g>
    <path d="M32.5,13.2L8.7,2.3C8.4,2.2,8.2,2,8,1.6c-0.2-0.3-0.2-0.7-0.2-1c0-0.4,0.1-0.7,0.2-0.8c0.2-0.1,0.4-0.1,0.7,0l25.5,11.6
        c0.3,0.1,0.5,0.3,0.7,0.6s0.3,0.7,0.3,1.2c0,0.2,0,0.4-0.1,0.6c-0.1,0.2-0.2,0.3-0.2,0.4L9.7,46.3l24.6,12.4
        c0.2,0.1,0.4,0.3,0.6,0.6c0.2,0.3,0.3,0.7,0.3,1.1c0,0.5-0.1,0.8-0.2,0.9s-0.4,0.1-0.7-0.1L8.1,48c-0.3-0.1-0.5-0.3-0.7-0.6
        c-0.2-0.2-0.3-0.6-0.3-1.1c0-0.2,0.1-0.5,0.2-0.7c0.1-0.2,0.2-0.3,0.3-0.4v0.1L32.5,13.2z"/>
    <path d="M59.5,44l21.1-10c-0.9-2-1.7-4-2.6-5.9s-1.7-3.9-2.6-5.8c-0.9-2-1.7-3.9-2.6-5.9s-1.7-4-2.6-6L59.5,44z M58.5,47l-5.3,16.7
        c0,0.1-0.1,0.2-0.2,0.3c-0.1,0.1-0.2,0.3-0.2,0.4c-0.1,0.1-0.2,0.2-0.2,0.3c-0.1,0.1-0.1,0.2-0.2,0.2c-0.3,0.1-0.5,0.1-0.7,0
        s-0.3-0.4-0.3-0.8c0,0,0.1-0.3,0.2-0.8s0.3-1.1,0.6-1.9c0.2-0.8,0.5-1.7,0.8-2.6c0.3-1,0.6-2,1-3c0.3-1,0.7-2.1,1-3.1
        s0.6-1.9,0.9-2.8l0.6-1.9l-2.7,1.3c-0.3,0.1-0.5,0.1-0.7,0c-0.2-0.2-0.3-0.4-0.3-0.8c0-0.5,0.1-0.9,0.3-1.1
        c0.2-0.2,0.4-0.4,0.7-0.6l3.6-1.7L69.3,7.8c0-0.2,0.1-0.4,0.3-0.7c0.1-0.3,0.3-0.5,0.6-0.6c0.3-0.1,0.5-0.1,0.7,0s0.3,0.3,0.4,0.5
        l0,0c0.1,0.3,0.4,0.9,0.8,1.8c0.4,0.9,0.9,2,1.5,3.4c0.6,1.3,1.3,2.9,2,4.6s1.5,3.5,2.3,5.3s1.6,3.7,2.5,5.6
        c0.8,1.9,1.6,3.7,2.4,5.5c0.8,1.8,1.5,3.4,2.2,5s1.3,2.9,1.8,4.1s0.9,2.1,1.2,2.8c0.3,0.7,0.4,1,0.4,1.1c0,0.3-0.1,0.7-0.3,1
        c-0.2,0.4-0.5,0.7-0.8,0.8c-0.1,0-0.3-0.2-0.5-0.6s-4.9-10.7-5-10.9c0-0.2-0.1-0.3-0.2-0.4L58.5,47z"/>
    <path d="M186.9,23.4c0,2,0.2,4,0.5,6c0.4,2,0.9,4,1.5,6c0.7,2,1.5,3.8,2.4,5.7c0.9,1.8,2,3.5,3.1,5s2.4,2.9,3.7,4.1
        s2.7,2.2,4.1,2.9c1.4,0.7,2.8,1.2,4.2,1.3c1.3,0.1,2.6,0,3.8-0.3c1.2-0.4,2.2-1,3.2-1.9s1.8-2,2.5-3.3s1.2-2.9,1.6-4.6
        c0.4-1.7,0.6-3.7,0.6-5.7c0-2.1-0.2-4.2-0.6-6.4c-0.4-2.1-0.9-4.2-1.6-6.2c-0.7-2-1.5-3.9-2.5-5.7c-1-1.8-2-3.5-3.2-5
        s-2.4-2.8-3.8-4c-1.3-1.1-2.8-2.1-4.2-2.7c-1.4-0.7-2.8-1-4.1-1.1s-2.6,0.1-3.7,0.5c-1.1,0.4-2.2,1.1-3.1,2c-0.9,0.9-1.7,2-2.4,3.3
        c-0.7,1.3-1.2,2.8-1.5,4.5C187.1,19.6,186.9,21.4,186.9,23.4 M185.2,22.6c0-2.3,0.2-4.3,0.6-6.2c0.4-1.9,1-3.6,1.7-5
        c0.7-1.5,1.6-2.7,2.6-3.7s2.2-1.8,3.4-2.2c1.3-0.5,2.6-0.7,4.1-0.6c1.5,0.1,3,0.5,4.6,1.2c1.6,0.8,3.2,1.8,4.7,3
        c1.5,1.3,2.9,2.8,4.2,4.4c1.3,1.7,2.5,3.5,3.6,5.6c1.1,2,2,4.2,2.8,6.4c0.8,2.2,1.4,4.5,1.8,6.9s0.6,4.7,0.6,7s-0.2,4.4-0.6,6.4
        c-0.4,1.9-1,3.6-1.8,5.1c-0.8,1.5-1.7,2.7-2.8,3.7s-2.3,1.7-3.6,2.1s-2.7,0.5-4.2,0.4c-1.5-0.2-3-0.7-4.6-1.5s-3.1-1.9-4.6-3.2
        c-1.5-1.3-2.8-2.9-4.1-4.6s-2.4-3.6-3.5-5.6c-1-2-1.9-4.1-2.6-6.3c-0.7-2.2-1.3-4.4-1.7-6.7C185.4,27,185.2,24.8,185.2,22.6"/>
    <path d="M148.1,14.6v31.1l7.7-3.4c1.4-0.6,2.8-1.3,4.2-2.2c1.4-0.8,2.8-1.7,4.1-2.8c1.3-1.1,2.5-2.3,3.6-3.7c1.1-1.4,2-3.1,2.8-4.9
        l0,0c0.5-1.5,0.9-2.9,1.2-4.5c0.2-1.5,0.4-3,0.4-4.4c0-2-0.2-3.8-0.6-5.2c-0.4-1.4-0.9-2.5-1.6-3.3c-0.7-0.8-1.5-1.4-2.5-1.8
        c-1-0.3-2.1-0.5-3.2-0.4c-1.2,0-2.4,0.3-3.8,0.6c-1.3,0.4-2.8,0.9-4.2,1.5L148.1,14.6z M155.2,9.1c0.8-0.3,1.7-0.7,2.6-1
        c0.9-0.3,1.8-0.6,2.7-0.9c0.9-0.3,1.8-0.5,2.6-0.6c0.9-0.2,1.7-0.2,2.5-0.2c1.4,0.1,2.6,0.5,3.7,1.1c1.1,0.6,2,1.5,2.7,2.5
        c0.7,1.1,1.3,2.4,1.6,3.9c0.4,1.5,0.5,3.2,0.5,5c0,0.7,0,1.5-0.1,2.3s-0.2,1.6-0.3,2.5c-0.2,0.8-0.3,1.7-0.5,2.5s-0.4,1.6-0.7,2.4
        c-0.9,2.4-1.9,4.4-3.2,6.2c-1.3,1.7-2.7,3.3-4.2,4.5c-1.5,1.3-3.1,2.4-4.8,3.3s-3.3,1.8-5,2.5l-7.1,3.2v12.4c0,0.4-0.1,0.8-0.3,1.1
        c-0.2,0.3-0.5,0.6-0.8,0.7c-0.3,0.2-0.6,0.1-0.8,0c-0.2-0.2-0.3-0.5-0.3-0.8V14.3c0-0.3,0-0.6,0.2-0.8c0.1-0.2,0.2-0.4,0.4-0.6
        c0.2-0.2,0.3-0.3,0.5-0.4c0.2-0.1,0.3-0.2,0.4-0.2L155.2,9.1z"/>
    <path d="M104.6,6.1v30.3l7.4,3.2c1.4,0.6,2.8,1.1,4.2,1.6s2.8,0.7,4.1,0.8c1.3,0.1,2.6-0.1,3.7-0.5c1.1-0.4,2.1-1.3,2.9-2.5l0,0
        c0.6-1,1-2.2,1.2-3.5c0.3-1.3,0.4-2.7,0.4-4.2c0-2.1-0.2-4-0.6-5.8c-0.4-1.8-1-3.3-1.7-4.8c-0.7-1.4-1.6-2.8-2.6-3.9
        c-1-1.2-2.1-2.2-3.3-3.1s-2.5-1.8-3.8-2.5s-2.7-1.4-4.2-2L104.6,6.1z M111.5,6.4c0.8,0.3,1.6,0.7,2.5,1.1c0.9,0.4,1.8,0.8,2.6,1.3
        c0.9,0.5,1.8,1,2.6,1.5c0.9,0.5,1.7,1.2,2.5,1.8c1.4,1.3,2.7,2.7,3.8,4.2s2,3.2,2.8,4.9c0.7,1.7,1.3,3.5,1.7,5.4s0.6,3.7,0.6,5.7
        c0,0.7,0,1.5-0.1,2.2c-0.1,0.8-0.2,1.5-0.4,2.2s-0.3,1.4-0.5,2.1s-0.4,1.3-0.7,1.8c-0.9,1.6-2,2.8-3.4,3.4
        c-1.3,0.6-2.8,0.9-4.3,0.8c-1.6-0.1-3.2-0.4-4.8-1c-1.7-0.6-3.3-1.2-4.9-1.9l-6.9-3V51c0,0.4-0.1,0.7-0.3,0.8
        c-0.2,0.2-0.4,0.2-0.7,0c-0.3-0.1-0.6-0.4-0.7-0.7c-0.2-0.3-0.2-0.7-0.2-1v-46c0-0.3,0.1-0.5,0.2-0.6c0.1-0.1,0.2-0.2,0.4-0.3
        c0.2,0,0.3,0,0.5,0s0.3,0.1,0.4,0.1L111.5,6.4z"/>
    <path d="M222.6,91.5c-1.5-1.7-3.6-2.2-3.7-2.7c-0.1-0.6,0.5-1.3,0.7-3c0.1-1.6-1.1-4.5-1.3-5.4l-0.2-2.5h0.6l-0.5-1.6
        c0,0,0.3,0.1,0.3-0.1c0-0.5-0.2-1.1-0.5-1.1h-2.7v17.4c3,0.3,5.4,4.4,5.4,8s-2.4,7.6-5.4,8v6.5h5.8c2.1,0,2.6-0.8,2.6-2.3V94.6
        C223.5,94.6,223.4,92.5,222.6,91.5z"/>
</g>
<g>
    <path d="M12.3,105.8l10-10H8.2C8.3,99.7,9.9,103.2,12.3,105.8z M14.9,98.6c0-0.4,0.3-0.7,0.7-0.7s0.7,0.3,0.7,0.7v1.6
        c0,0.4-0.3,0.7-0.7,0.7s-0.7-0.3-0.7-0.7V98.6z M12.3,97.2c1.1,0,1.9,0.9,1.9,1.9c0,1.1-0.9,1.9-1.9,1.9s-1.9-0.9-1.9-1.9
        C10.4,98,11.3,97.2,12.3,97.2z"/>
    <path d="M12.3,99.7c0.3,0,0.6-0.3,0.6-0.6s-0.3-0.6-0.6-0.6s-0.6,0.3-0.6,0.6S12,99.7,12.3,99.7z"/>
    <path d="M21.1,107.6c-0.3,0-0.6,0.3-0.6,0.6s0.3,0.6,0.6,0.6s0.6-0.3,0.6-0.6S21.4,107.6,21.1,107.6z"/>
    <path d="M19,104c-0.3,0-0.6,0.3-0.6,0.6s0.3,0.6,0.6,0.6s0.6-0.3,0.6-0.6C19.5,104.3,19.3,104,19,104z"/>
    <path d="M23.3,96.7l-10,10c2.7,2.5,6.2,4,10,4.2V96.7z M20.3,101.1c0.3-0.3,0.7-0.3,1,0l1,1.1c0.3,0.3,0.3,0.7,0,1
        c-0.1,0.1-0.3,0.2-0.5,0.2s-0.3-0.1-0.5-0.2l-1.1-1.1C20,101.8,20,101.4,20.3,101.1z M17,104.6c0-1.1,0.9-1.9,1.9-1.9
        s1.9,0.9,1.9,1.9c0,1.1-0.9,1.9-1.9,1.9S17,105.7,17,104.6z M21.1,110.1c-1.1,0-1.9-0.9-1.9-1.9c0-1.1,0.9-1.9,1.9-1.9
        s1.9,0.9,1.9,1.9C23,109.3,22.1,110.1,21.1,110.1z"/>
    <path d="M23.3,79.3c-3.9,0.2-7.4,1.7-10,4.2l10,10V79.3z M21.6,84c0.4,0,0.7,0.3,0.7,0.7s-0.3,0.7-0.7,0.7H20
        c-0.4,0-0.7-0.3-0.7-0.7S19.6,84,20,84H21.6z M18.7,81c0-0.4,0.3-0.7,0.7-0.7s0.7,0.3,0.7,0.7v1.6c0,0.4-0.3,0.7-0.7,0.7
        s-0.7-0.3-0.7-0.7V81z M20.6,89.7c-1.1,0-1.9-0.9-1.9-1.9c0-1.1,0.9-1.9,1.9-1.9s1.9,0.9,1.9,1.9C22.6,88.8,21.7,89.7,20.6,89.7z"
        />
    <path d="M23.3,75.2c-5,0.2-9.5,2.2-12.9,5.4l1.9,1.9c2.9-2.7,6.8-4.4,11-4.6V75.2z"/>
    <g>
        <circle cx="12.2" cy="91" r="0.6"/>
        <path d="M13,92.7h5.3l-10-10c-2.5,2.7-4,6.2-4.2,10h7.2c-0.6-0.3-1.1-1-1.1-1.7c0-1.1,0.9-1.9,1.9-1.9S14,90,14,91
            C14.1,91.8,13.7,92.4,13,92.7z M8.5,90.4c-0.1,0.1-0.3,0.2-0.5,0.2s-0.3-0.1-0.5-0.2l-1.1-1.1c-0.3-0.3-0.3-0.7,0-1s0.7-0.3,1,0
            l1.1,1.1C8.8,89.7,8.8,90.1,8.5,90.4z"/>
        <path d="M2.7,92.7c0.2-4.2,1.9-8.1,4.6-11l-1.9-1.9C2.2,83.2,0.2,87.7,0,92.7H2.7z"/>
    </g>
    <path d="M23.3,112.3c-4.2-0.2-8.1-1.9-11-4.6l-1.9,1.9c3.4,3.2,7.9,5.2,12.9,5.4V112.3z"/>
    <circle cx="20.6" cy="87.8" r="0.6"/>
    <path d="M11.4,106.8c-2.7-2.9-4.4-6.8-4.6-11H4.1c0.2,5,2.2,9.5,5.4,12.9L11.4,106.8z"/>
</g>
<g>
    <path d="M42.8,88.1V92c0,4.8-2.3,7.4-7.1,7.4h-2.2v11.3h-4.7V80.6h7C40.5,80.6,42.8,83.3,42.8,88.1z M33.5,84.9v10.2h2.2
        c1.5,0,2.3-0.7,2.3-2.8v-4.5c0-2.1-0.8-2.8-2.3-2.8L33.5,84.9L33.5,84.9z"/>
    <path d="M44.9,80.6h4.7v30.1h-4.7V80.6z"/>
    <path d="M65.8,80.6v4.2l-9,21.6h9v4.3H51.9v-4.2l9-21.6h-8.6v-4.3H65.8z"/>
    <path d="M81.6,80.6v4.2l-9,21.6h9v4.3H67.8v-4.2l9-21.6h-8.6v-4.3H81.6z"/>
    <path d="M100,110.7h-4.8l-0.8-5.5h-5.8l-0.8,5.5h-4.3l4.8-30.1h6.9L100,110.7z M89.2,101.2h4.6L91.6,86h-0.1L89.2,101.2z"/>
    <path d="M115.7,94.9L115.7,94.9c-2.2-1-3.3-3-3.3-6.2v-0.6c0-4.8,2.3-7.4,7.1-7.4h5.4V85h-5.3c-1.5,0-2.4,0.8-2.4,2.9v1.8
        c0,2.4,1.1,3.2,2.8,3.2h2.1v-3.4h4.7v3.4h1.2v4.3h-1.2v9.9c0,1.5,0,2.5,0.5,3.7h-4.8c-0.2-0.6-0.3-1-0.4-2.4H122
        c-0.8,1.8-2.2,2.7-4.3,2.7c-3.5,0-5.2-2.5-5.2-6.9v-3.1C112.4,98.1,113.4,95.9,115.7,94.9z M119.6,106.8c1.4,0,2.4-0.7,2.5-2.6v-7
        h-1.8c-2.1,0-3.1,1-3.1,3.8v2.8C117.2,106,118.1,106.8,119.6,106.8z"/>
    <path d="M154.6,87.6v1.1c0,3.1-0.9,5-3.1,6v0.1c2.5,1,3.5,3.2,3.5,6.4v2.5c0,4.6-2.5,7.1-7.2,7.1h-7.4V80.7h7.1
        C152.5,80.6,154.6,82.9,154.6,87.6z M145.2,84.9v8h1.8c1.8,0,2.8-0.8,2.8-3.2V88c0-2.2-0.7-3.1-2.4-3.1H145.2z M145.2,97.2v9.2h2.7
        c1.6,0,2.5-0.7,2.5-3v-2.6c0-2.8-0.9-3.7-3.1-3.7h-2.1V97.2z"/>
    <path d="M157.4,80.6h4.7v30.1h-4.7V80.6z"/>
    <path d="M169.7,93.3h6.5v4.3h-6.5v8.8h8.2v4.3H165V80.6h12.9v4.3h-8.2V93.3z M171,74.3l2.9,4.8h-3.4l-4.4-4.8
        C166.1,74.3,171,74.3,171,74.3z"/>
    <path d="M190.2,110.7c-0.3-0.8-0.4-1.2-0.4-3.7v-4.7c0-2.8-0.9-3.8-3.1-3.8h-1.6v12.3h-4.8V80.7h7.1c4.9,0,7,2.3,7,6.9V90
        c0,3.1-1,5.1-3.1,6.1v0.1c2.4,1,3.1,3.2,3.1,6.4v4.6c0,1.5,0,2.5,0.5,3.7h-4.7V110.7z M185,84.9v9.2h1.8c1.8,0,2.8-0.8,2.8-3.2v-3
        c0-2.2-0.7-3.1-2.4-3.1H185V84.9z"/>
    <path d="M202,93.3h6.5v4.3H202v8.8h8.2v4.3h-12.9V80.6h12.9v4.3H202V93.3z"/>
</g>
<g>
    <rect x="23.4" y="69.5" width="191.9" height="1.4"/>
</g>
</svg>
