<svg width="284" height="284" viewBox="0 0 284 284" fill="none" xmlns="http://www.w3.org/2000/svg">
<path fill-rule="evenodd" clip-rule="evenodd" d="M242 173.409C230.875 177.532 218.845 179.784 206.29 179.784C149.424 179.784 103.325 133.585 103.325 76.5965C103.325 64.4611 105.415 52.815 109.255 42C69.9904 56.5509 42 94.4059 42 138.813C42 195.801 88.099 242 144.965 242C189.722 242 227.809 213.382 242 173.409Z" fill="black"/>
<path d="M197.071 142L199.791 150.388H208.592L201.472 155.573L204.191 163.961L197.071 158.777L189.951 163.961L192.671 155.573L185.551 150.388H194.352L197.071 142Z" fill="black"/>
<path d="M142.186 63.831L146.181 76.1513H159.107L148.649 83.7657L152.644 96.0861L142.186 88.4717L131.728 96.0861L135.723 83.7657L125.265 76.1513H138.192L142.186 63.831Z" fill="black"/>
<path d="M185.091 69.0094L186.451 73.2036H190.851L187.291 75.7957L188.651 79.9899L185.091 77.3977L181.531 79.9899L182.891 75.7957L179.331 73.2036H183.731L185.091 69.0094Z" fill="black"/>
<path d="M173.409 112.422L174.769 116.617H179.169L175.609 119.209L176.969 123.403L173.409 120.811L169.849 123.403L171.209 119.209L167.648 116.617H172.049L173.409 112.422Z" fill="black"/>
</svg>
